<svg width="42" height="30" viewBox="0 0 42 30" fill="none" xmlns="http://www.w3.org/2000/svg">
<path d="M41.4665 12.736L36.6444 7.30552C36.2449 6.85566 35.6717 6.59882 35.0701 6.60005H28.7V2.40005C28.6988 1.24078 27.7593 0.301279 26.6 0.300049H2.1C0.940735 0.301279 0.00123054 1.24078 6.83622e-08 2.40005V20.6001C-8.19629e-05 20.7857 0.0736641 20.9638 0.204996 21.0951C0.336246 21.2264 0.514336 21.3001 0.700055 21.3001H1.40003V23.4001C1.40126 24.5594 2.34076 25.4989 3.50003 25.5001H4.95592C5.30094 27.9102 7.36534 29.7001 9.80003 29.7001C12.2347 29.7001 14.2991 27.9102 14.6441 25.5001H27.356C27.7011 27.9102 29.7654 29.7001 32.2001 29.7001C34.6348 29.7001 36.6992 27.9102 37.0442 25.5001H39.9C41.0593 25.4989 41.9988 24.5594 42 23.4001V14.1319C41.9995 13.6168 41.8096 13.1201 41.4665 12.736ZM1.40003 19.9V2.40005C1.40044 2.0136 1.71355 1.7004 2.1 1.70008H26.6C26.9865 1.70049 27.2997 2.0136 27.3 2.40005V19.9H1.40003ZM4.95592 24.1H3.50003C3.11358 24.0996 2.80038 23.7865 2.80005 23.4V21.3H6.37744C5.60848 22.0516 5.10882 23.0357 4.95592 24.1ZM9.80003 28.3C7.86704 28.3 6.3 26.733 6.3 24.8C6.3 22.867 7.86704 21.3 9.80003 21.3C11.733 21.3 13.3001 22.8671 13.3001 24.8001C13.2978 26.7321 11.732 28.2978 9.80003 28.3ZM16.8 24.1H14.6441C14.4911 23.0357 13.9916 22.0515 13.2226 21.3H16.8V24.1ZM23.1 24.1H18.2V21.3H23.1V24.1ZM27.3559 24.1H24.5V21.3H28.7774C28.0084 22.0516 27.5089 23.0357 27.3559 24.1ZM32.2 28.3C30.267 28.3 28.6999 26.733 28.6999 24.8C28.6999 22.867 30.2669 21.3 32.2 21.3C34.133 21.3 35.7 22.867 35.7 24.8C35.6977 26.7321 34.1321 28.2978 32.2 28.3ZM40.6 23.4C40.5996 23.7865 40.2864 24.0997 39.9 24.1H37.0441C36.695 21.6922 34.6331 19.9044 32.2 19.9H28.6999V8.00008H31.5V15C31.5012 16.1593 32.4407 17.0988 33.6 17.1H40.6V23.4ZM40.6 15.7H33.6C33.2136 15.6996 32.9004 15.3865 32.9 15V8.00008H35.0701C35.2711 7.99893 35.4628 8.08408 35.5968 8.23386L40.4206 13.6664C40.5354 13.7944 40.5992 13.96 40.6001 14.1319L40.6 15.7Z" fill="#006695"/>
</svg>
