<svg width="40" height="40" viewBox="0 0 40 40" fill="none" xmlns="http://www.w3.org/2000/svg">
<path d="M39.721 14.3689L35.2521 2.74987C34.4053 0.553395 31.9382 -0.540677 29.7417 0.306143C29.7098 0.318464 29.678 0.331118 29.6464 0.344188L7.31402 9.6016C5.18757 10.4739 4.14244 12.8809 4.95705 15.0302L5.5711 16.6692H4.16251C1.86472 16.6718 0.00258075 18.5339 0 20.8317V35.8167C0.00258075 38.1145 1.86472 39.9766 4.16251 39.9792H32.4676C34.7653 39.9766 36.6275 38.1145 36.6301 35.8167V20.8317C36.6287 20.6058 36.6087 20.3803 36.5701 20.1577L37.3433 19.8447C39.4888 18.9653 40.5432 16.5369 39.721 14.3689ZM4.16251 18.0013H32.4676C33.9624 18.0055 35.1955 19.1729 35.2814 20.6653H1.34865C1.43457 19.1729 2.66767 18.0054 4.16251 18.0013ZM10.8565 13.9893L15.308 11.7629L16.2231 14.0519L11.7716 16.2777L10.8565 13.9893ZM35.2981 35.8168C35.2962 37.3793 34.0301 38.6455 32.4676 38.6473H4.16251C2.59999 38.6455 1.33383 37.3793 1.332 35.8168V27.3253H35.2981V35.8168ZM35.2981 25.9933H1.332V21.9973H35.2981V25.9933ZM36.8438 18.614L36.1479 18.8957C35.429 17.5284 34.0123 16.6714 32.4676 16.6693H13.9674L17.3673 14.969C17.6773 14.8142 17.8169 14.4476 17.6883 14.1258L16.2757 10.596C16.1391 10.2545 15.7516 10.0884 15.4101 10.2249C15.3929 10.2318 15.376 10.2394 15.3594 10.2477L9.71238 13.0729C9.4026 13.2279 9.26333 13.5944 9.39203 13.916L10.4936 16.6693H6.99301L6.20447 14.5661C5.64544 13.0894 6.36347 11.436 7.82418 10.8364L30.1559 1.57904C31.6488 0.959989 33.3609 1.66836 33.98 3.16129C33.9897 3.18451 33.999 3.20791 34.008 3.23138L38.4769 14.8504C39.0422 16.3402 38.318 18.0092 36.8438 18.614Z" fill="#006695"/>
</svg>
