<svg width="44" height="28" viewBox="0 0 44 28" fill="none" xmlns="http://www.w3.org/2000/svg">
<path d="M35.9333 0.0666504H28.6C25.2807 0.0720215 22.3026 2.10838 21.0937 5.19998H17.6C17.195 5.19998 16.8667 5.52834 16.8667 5.93332V14.7333C16.8667 15.1383 17.195 15.4667 17.6 15.4667H20.5333V17.6667H0.733333C0.328353 17.6667 0 17.995 0 18.4V25.7333C0 26.9483 0.985059 27.9333 2.2 27.9333C3.41494 27.9333 4.4 26.9483 4.4 25.7333V23.5333H35.9333C40.3863 23.5279 43.9946 19.9196 44 15.4667V8.13332C43.9946 3.68032 40.3863 0.0720215 35.9333 0.0666504ZM18.3333 14V6.66665H20.6676C20.6425 6.79878 20.63 6.9327 20.6125 7.06554C20.5992 7.16151 20.5824 7.2564 20.5731 7.35379C20.548 7.61196 20.5333 7.87228 20.5333 8.13332V14H18.3333ZM1.46667 19.1333H2.93333V20.6H4.4V19.1333H5.86667V20.6H7.33333V19.1333H8.8V20.6H10.2667V19.1333H11.7333V20.6H13.2V19.1333H14.6667V20.6H16.1333V19.1333H17.6V20.6H19.0667V19.1333H20.5333V22.0667H1.46667V19.1333ZM2.93333 25.7333C2.93333 26.1383 2.60498 26.4667 2.2 26.4667C1.79502 26.4667 1.46667 26.1383 1.46667 25.7333V23.5333H2.93333V25.7333ZM42.5333 15.4667C42.5294 19.11 39.5767 22.0627 35.9333 22.0667H22V8.13332C22.0025 7.83433 22.0251 7.53569 22.0673 7.23921C22.0777 7.16616 22.0888 7.09276 22.1006 7.02508C22.6152 3.84146 25.3752 1.50933 28.6 1.53332H35.9333C39.5767 1.53726 42.5294 4.48993 42.5333 8.13332V15.4667Z" fill="#006695"/>
</svg>
